<mxfile host="app.diagrams.net" modified="2023-11-03T20:03:35.229Z" agent="Mozilla/5.0 (Macintosh; Intel Mac OS X 10.15; rv:109.0) Gecko/20100101 Firefox/119.0" version="22.0.8" etag="ofJ7VBbpU0WViV5sEN_J" type="github">
  <diagram name="Page-1" id="q5r2QxPHXzRaAePuVasP">
    <mxGraphModel>
      <root>
        <mxCell id="0" />
        <mxCell id="1" parent="0" />
      </root>
    </mxGraphModel>
  </diagram>
</mxfile>
